<svg xmlns="http://www.w3.org/2000/svg" xmlns:xlink="http://www.w3.org/1999/xlink" viewBox="0 0 818.35 656.71"><defs><style>.cls-1{fill:#ec8641;}.cls-2{fill:#3b7ba4;}.cls-3{clip-path:url(#clip-path);}</style><clipPath id="clip-path"><path class="cls-1" d="M159,537.24l-8.79-10.17A287.22,287.22,0,0,1,555.34,122l10.17,8.79L534.32,162l-8.79-7.5A243.2,243.2,0,0,0,367.77,96.21c-134.15,0-243.29,109.14-243.29,243.3a243.16,243.16,0,0,0,58.24,157.76l7.5,8.78Z"/></clipPath></defs><g id="Calque_2" data-name="Calque 2"><g id="Calque_1-2" data-name="Calque 1"><path class="cls-2" d="M484.53,369.44a51.92,51.92,0,1,1,0-56.29L524.61,290a98.17,98.17,0,1,0,0,102.56Z"/><path class="cls-2" d="M814.74,41.94,747,123l-14.21-15.73,72.38-75.9-7.36-8.23,0,0-.39-.38-.37-.4,0,0-7.91-7.71L711.83,84.28,695.14,68.82,779.05,4.67,754.31,0,620.83,93.28l2.42,45-58.86,59.6,3.91,3.94,2.77,4.2a242,242,0,0,1,40,133.51c0,134.15-109.14,243.29-243.29,243.29a241.93,241.93,0,0,1-133.5-40l-8.51-5.61-31.63,31.63,12.5,8.49A287.31,287.31,0,0,0,633.94,231.45L676,193.35l44.82-.07L818.35,66.87Z"/><path class="cls-1" d="M284.16,240H215.28V442.56h68.88c57.06,0,103.31-45.34,103.31-101.26S341.22,240,284.16,240Zm9.77,145.09H264.11V297.47h29.82c24.69,0,44.71,19.62,44.71,43.83S318.62,385.13,293.93,385.13Z"/><path class="cls-1" d="M159,537.24l-8.79-10.17A287.22,287.22,0,0,1,555.34,122l10.17,8.79L534.32,162l-8.79-7.5A243.2,243.2,0,0,0,367.77,96.21c-134.15,0-243.29,109.14-243.29,243.3a243.16,243.16,0,0,0,58.24,157.76l7.5,8.78Z"/><g class="cls-3"><path class="cls-1" d="M80.55,52.29v0Z"/><rect class="cls-1" x="80.55" y="52.29" width="37.3" height="484.95"/><rect class="cls-1" x="117.86" y="52.29" width="37.3" height="484.95"/><rect class="cls-1" x="155.16" y="52.29" width="37.3" height="484.95"/><rect class="cls-1" x="192.47" y="52.29" width="37.3" height="484.95"/><rect class="cls-1" x="229.77" y="52.29" width="37.3" height="484.95"/><rect class="cls-1" x="267.07" y="52.29" width="37.3" height="484.95"/><rect class="cls-1" x="304.38" y="52.29" width="37.3" height="484.95"/><rect class="cls-1" x="341.68" y="52.29" width="37.3" height="484.95"/><rect class="cls-1" x="378.99" y="52.29" width="37.3" height="484.95"/><rect class="cls-1" x="416.29" y="52.29" width="37.3" height="484.95"/><rect class="cls-1" x="453.6" y="52.29" width="37.3" height="484.95"/><rect class="cls-1" x="490.9" y="52.29" width="37.3" height="484.95"/><rect class="cls-1" x="528.2" y="52.29" width="37.3" height="484.95"/><path class="cls-1" d="M565.51,537.24v0Z"/></g><rect class="cls-1" x="85.02" y="436.07" width="46.19" height="227.86" transform="translate(-361.71 244.3) rotate(-45.83)"/><rect class="cls-1" x="8.69" y="614.55" width="37.65" height="32.27" transform="translate(-444.02 210.96) rotate(-45.83)"/><rect class="cls-1" x="112.81" y="483.63" width="66.98" height="54.35" transform="translate(-322.03 259.81) rotate(-45.83)"/><rect class="cls-1" x="42.22" y="523.7" width="46.19" height="137.25" transform="translate(-405.05 226.44) rotate(-45.83)"/></g></g></svg>